# xmcd
#
# Track frame offsets:
#	150
#	24518
#	47304
#	75182
#	93566
#	117690
#	148104
#	172667
#	192771
#	212917
#	246285
#	282411
#
# Disc length: 4123 seconds
#
# Revision: 0
# Processed by: cddbd v1.5.2PL0 Copyright (c) Steve Scherf et al.
# Submitted via: Jack! The Knife
#
DISCID=a010190c
DTITLE=Yngwie Malmsteen - Perpetual Flame
DYEAR=2008
DGENRE=Heavy Metal
TTITLE0=Death Dealer
TTITLE1=Damnation Game
TTITLE2=Live To Fight (Another Day)
TTITLE3=Red Devil
TTITLE4=Four Horsemen (Of The Apocalypse)
TTITLE5=Priest Of The Unholy
TTITLE6=Be Careful What You Wish For
TTITLE7=Caprici Di Diablo
TTITLE8=Lament
TTITLE9=Magic City
TTITLE10=Eleventh Hour
TTITLE11=Heavy Heart
EXTD=Yngwie Malmsteen
EXTT0=
EXTT1=
EXTT2=
EXTT3=
EXTT4=
EXTT5=
EXTT6=
EXTT7=
EXTT8=
EXTT9=
EXTT10=
EXTT11=
PLAYORDER=
